<svg id="Layer_1" data-name="Layer 1" xmlns="http://www.w3.org/2000/svg" xmlns:xlink="http://www.w3.org/1999/xlink" viewBox="0 0 539.92 87.28"><defs><style>.cls-1{fill:#00a1c8;}.cls-2{fill:url(#linear-gradient);}.cls-3{fill:url(#linear-gradient-2);}.cls-4{fill:url(#linear-gradient-3);}.cls-5{fill:url(#linear-gradient-4);}.cls-6{fill:#fff;}</style><linearGradient id="linear-gradient" x1="38.48" y1="70.97" x2="51.44" y2="70.97" gradientUnits="userSpaceOnUse"><stop offset="0" stop-color="#f39200"/><stop offset="1" stop-color="#d48100"/></linearGradient><linearGradient id="linear-gradient-2" x1="60.56" y1="70.97" x2="73.52" y2="70.97" gradientUnits="userSpaceOnUse"><stop offset="0" stop-color="#c27597"/><stop offset="1" stop-color="#e287af"/></linearGradient><linearGradient id="linear-gradient-3" x1="38.48" y1="93.05" x2="51.44" y2="93.05" gradientUnits="userSpaceOnUse"><stop offset="0" stop-color="#95c11f"/><stop offset="1" stop-color="#88b01d"/></linearGradient><linearGradient id="linear-gradient-4" x1="60.56" y1="93.05" x2="73.52" y2="93.05" gradientUnits="userSpaceOnUse"><stop offset="0" stop-color="#b7b700"/><stop offset="1" stop-color="#dedc00"/></linearGradient></defs><title>RNAcentral_logo_highrez</title><path class="cls-1" d="M128.21,118.11H115.88L92.61,85.86H89.38v32.26H78.69V42.6H95.33q26.12,0,26.63,20.55A20,20,0,0,1,117.4,77q-4.74,5.66-13.41,8.19ZM111.45,63.56Q111,51.39,94.62,51.39H89.38V77.45h4A22.42,22.42,0,0,0,105.9,74.1,11.45,11.45,0,0,0,111.45,63.56Z" transform="translate(-23.14 -33.11)"/><path class="cls-1" d="M202.36,120.39L145.63,64.16v53.95H135.26v-78l56.86,55.85V42.6h10.25v77.79Z" transform="translate(-23.14 -33.11)"/><path class="cls-1" d="M280.11,118.11H269l-9-19.48H227.31l-8.73,19.48H207.76L243,39.69ZM256,90.22L243,63,231,90.22h25Z" transform="translate(-23.14 -33.11)"/><path class="cls-1" d="M316.19,116.09A44.66,44.66,0,0,1,309,119a31.72,31.72,0,0,1-7,.66q-11.07.19-17.71-7.34-6.2-7-6.2-17.52a24.31,24.31,0,0,1,7.21-17.61,23.67,23.67,0,0,1,17.39-7.43,28.3,28.3,0,0,1,8.1,1.26,13.53,13.53,0,0,1,5.38,2.53V83.83Q311.57,79.28,303,79A14,14,0,0,0,292,83.67a15.72,15.72,0,0,0-4.43,11.48,16.17,16.17,0,0,0,4,10.88,14.53,14.53,0,0,0,10.88,4.74q7,0.19,13.72-5.69v11Z" transform="translate(-23.14 -33.11)"/><path class="cls-1" d="M369.66,105a25.47,25.47,0,0,1-8.48,10.24,22.42,22.42,0,0,1-13.53,4.43q-12.52-.13-18.78-7.27-5.69-6.58-5.57-18.34,0.13-10.37,6.2-17.33,6.45-7.46,17.08-7.46a21.4,21.4,0,0,1,16.95,7.59q6.58,7.59,6.14,19.29H333q0.38,13.91,13.72,14.74a13.79,13.79,0,0,0,9.61-3.42,15.63,15.63,0,0,0,5.38-7.21ZM359.35,88.51Q356.63,78.27,347,78a12.69,12.69,0,0,0-13.15,10.5h25.49Z" transform="translate(-23.14 -33.11)"/><path class="cls-1" d="M417.43,118.11h-9.61V89.9q0-11.7-10.12-11.89a9.75,9.75,0,0,0-7.78,3.55A12.42,12.42,0,0,0,386.76,90v28.11h-9.93V70.74h9.61v5.57a17.91,17.91,0,0,1,14.48-6.83,21.82,21.82,0,0,1,5.63.76q10.88,2.91,10.88,15.85v32Z" transform="translate(-23.14 -33.11)"/><path class="cls-1" d="M448.58,79.34h-8.73v39H430v-39h-4.81v-8.6H430V52.59h9.87V70.74h8.73v8.6Z" transform="translate(-23.14 -33.11)"/><path class="cls-1" d="M489.77,72L485,80.48a12.8,12.8,0,0,0-6.45-2,8.46,8.46,0,0,0-6.45,3q-3.79,4.17-3.79,12.9v23.72H458.4V70.74H468v6.14A11.5,11.5,0,0,1,472,72.8a18.22,18.22,0,0,1,6.42-2.88,15,15,0,0,1,2.78-.25A17.51,17.51,0,0,1,489.77,72Z" transform="translate(-23.14 -33.11)"/><path class="cls-1" d="M540.59,118.11h-9.87v-5.25a19,19,0,0,1-6.39,4.17,22.4,22.4,0,0,1-9.61,2.21,20.09,20.09,0,0,1-16.19-7.65q-5.63-7-5.75-17.2a25.86,25.86,0,0,1,5.63-17.2,20.08,20.08,0,0,1,16-7.72q9.87-.19,16.12,5.82V70.74h10.06v47.37Zm-8.48-24.35a17.28,17.28,0,0,0-4.43-11.38A13.46,13.46,0,0,0,517,77.57a13.31,13.31,0,0,0-10.56,5.12A18,18,0,0,0,502.57,94a17.48,17.48,0,0,0,3.92,11.7A13.23,13.23,0,0,0,517.06,111,13.63,13.63,0,0,0,528,105.78,17.47,17.47,0,0,0,532.11,93.76Z" transform="translate(-23.14 -33.11)"/><path class="cls-1" d="M563.06,118.11H552.94v-85h10.12v85Z" transform="translate(-23.14 -33.11)"/><path class="cls-2" d="M51.44,73v-8.5H41.68a3.2,3.2,0,0,0-3.2,3.2v9.76h9A4.48,4.48,0,0,0,51.44,73Z" transform="translate(-23.14 -33.11)"/><path class="cls-3" d="M64.56,77.45h9V67.69a3.2,3.2,0,0,0-3.2-3.2H60.56V73A4.48,4.48,0,0,0,64.56,77.45Z" transform="translate(-23.14 -33.11)"/><path class="cls-4" d="M47.43,86.57h-9v9.76a3.2,3.2,0,0,0,3.2,3.2h9.76V91A4.48,4.48,0,0,0,47.43,86.57Z" transform="translate(-23.14 -33.11)"/><path class="cls-5" d="M60.56,91v8.5h9.76a3.2,3.2,0,0,0,3.2-3.2V86.57h-9A4.48,4.48,0,0,0,60.56,91Z" transform="translate(-23.14 -33.11)"/><path class="cls-1" d="M27.62,77.45a4.48,4.48,0,0,0-4.48,4.48v0.15a4.48,4.48,0,0,0,4.48,4.48H38.48V77.45H27.62Z" transform="translate(-23.14 -33.11)"/><polygon class="cls-1" points="37.42 13.74 28.3 25.04 28.3 31.38 37.42 31.38 37.42 13.74"/><path class="cls-1" d="M51.44,110.38a4.48,4.48,0,0,0,4.48,4.48h0.15a4.48,4.48,0,0,0,4.48-4.48V99.53H51.44v10.86Z" transform="translate(-23.14 -33.11)"/><path class="cls-6" d="M64.56,77.45a4.48,4.48,0,0,1-4-4.46v-8.5H51.44V73a4.48,4.48,0,0,1-4,4.46h-9v9.12h9a4.48,4.48,0,0,1,4,4.46v8.5h9.12V91a4.48,4.48,0,0,1,4-4.46h9V77.45h-9Z" transform="translate(-23.14 -33.11)"/></svg>